<svg id="Layer_1" data-name="Layer 1" xmlns="http://www.w3.org/2000/svg" viewBox="0 0 320 235"><defs><style>.cls-1{fill:#fff;}</style></defs><title>button</title><rect class="cls-1" x="23" y="39" width="274" height="164" rx="20" ry="20"/><path d="M122,168.5a5.5,5.5,0,0,1-5.5-5.5V116a5.48,5.48,0,0,1,.53-2.37,5.49,5.49,0,0,1,1.64-2.86L156.26,76a5.5,5.5,0,0,1,7.47,0l37.59,34.81a5.5,5.5,0,0,1,1.64,2.86,5.48,5.48,0,0,1,.53,2.37v47a5.5,5.5,0,0,1-5.5,5.5Zm38-74A16.5,16.5,0,1,0,176.5,111,16.52,16.52,0,0,0,160,94.5Z"/><path d="M160,80l37.59,34.81V116H198v47H122V116h.41v-1.19L160,80m0,53a22,22,0,1,0-22-22,22,22,0,0,0,22,22m0-64a11,11,0,0,0-7.47,2.93l-37.59,34.81a11,11,0,0,0-3.12,5.1A11,11,0,0,0,111,116v47a11,11,0,0,0,11,11h76a11,11,0,0,0,11-11V116a11,11,0,0,0-.82-4.16,11,11,0,0,0-3.12-5.1L167.47,71.93A11,11,0,0,0,160,69Zm0,53a11,11,0,1,1,11-11,11,11,0,0,1-11,11Z"/></svg>