<svg id="Layer_1" data-name="Layer 1" xmlns="http://www.w3.org/2000/svg" viewBox="0 0 320 235"><defs><style>.cls-1{fill:#fff;}</style></defs><title>button</title><path class="cls-1" d="M154.83,125.3c-.42.45-.66.72-.92,1-3.33,3.34-6.68,6.66-10,10a7.43,7.43,0,0,0-1.57,2.24,4.55,4.55,0,0,0,3.9,6.49,5.44,5.44,0,0,0,4.31-1.79q9.34-9.37,18.68-18.73a5.32,5.32,0,0,0,0-8q-9.3-9.34-18.62-18.65a7.37,7.37,0,0,0-1.52-1.2,4.62,4.62,0,0,0-7.13,3.6,5.52,5.52,0,0,0,1.85,4.39c3.37,3.35,6.71,6.72,10.08,10.07a4.08,4.08,0,0,0,1,.54l-.32.4c-.36,0-.73,0-1.09,0H122.12c-3.25,0-6.5-.07-9.74.08a4.67,4.67,0,0,0-4.16,5.95c.62,2.31,2.43,3.57,5.19,3.57h41.41Zm42.92,28.76v9.44c3.5,0,7,.21,10.37-.07,2.54-.2,4.79-3.08,4.78-5.91-.08-24.81,0-49.61-.09-74.42a5.91,5.91,0,0,0-.91-2.95,6,6,0,0,0-5.38-2.82h-8a6.36,6.36,0,0,0-.75.08V87h5.6v67.1Z"/><path class="cls-1" d="M189.47,68a2.47,2.47,0,0,0,.37.17,6.35,6.35,0,0,1,5,6.54q0,21,0,41.94,0,24.2,0,48.39a15,15,0,0,1-.21,3.05,6.29,6.29,0,0,1-5.85,4.89c-.38,0-.75,0-1.13,0H129.36c-4.52,0-7.12-2.6-7.12-7.12q0-6.41,0-12.82c0-.34,0-.67,0-1.09h9.58v11.34h53.28V77.7H131.89V89H122.3c0-.23-.06-.43-.06-.63,0-4.65,0-9.3,0-13.94a6.38,6.38,0,0,1,4.83-6.25,3.64,3.64,0,0,0,.46-.2Z"/><path class="cls-1" d="M154.83,125.3H113.42c-2.76,0-4.58-1.26-5.19-3.57a4.67,4.67,0,0,1,4.16-5.95c3.24-.15,6.49-.07,9.74-.08H153.5c.36,0,.73,0,1.09,0l.32-.4a4.08,4.08,0,0,1-1-.54c-3.37-3.35-6.72-6.72-10.08-10.07a5.52,5.52,0,0,1-1.85-4.39,4.62,4.62,0,0,1,7.13-3.6,7.37,7.37,0,0,1,1.52,1.2q9.32,9.31,18.62,18.65a5.32,5.32,0,0,1,0,8q-9.33,9.38-18.68,18.73a5.44,5.44,0,0,1-4.31,1.79,4.55,4.55,0,0,1-3.9-6.49,7.43,7.43,0,0,1,1.57-2.24c3.3-3.37,6.65-6.69,10-10C154.17,126,154.41,125.75,154.83,125.3Z"/><path class="cls-1" d="M197.75,154.06h5.63V87h-5.6V77.42a6.36,6.36,0,0,1,.75-.08h8a6,6,0,0,1,5.38,2.82,5.91,5.91,0,0,1,.91,2.95c0,24.81,0,49.61.09,74.42,0,2.84-2.24,5.71-4.78,5.91-3.41.27-6.87.07-10.37.07Z"/></svg>