<svg id="Layer_1" data-name="Layer 1" xmlns="http://www.w3.org/2000/svg" viewBox="0 0 320 235"><defs><style>.cls-1{fill:#fff;}</style></defs><title>button</title><path class="cls-1" d="M160,78a15.69,15.69,0,1,1-15.69,15.69A15.69,15.69,0,0,1,160,78m0-9a24.69,24.69,0,1,0,24.69,24.69A24.71,24.71,0,0,0,160,69Z"/><path class="cls-1" d="M160,121.93a27.55,27.55,0,0,1,27.55,27.55V161h-55.1V149.48A27.55,27.55,0,0,1,160,121.93m0-9a36.59,36.59,0,0,0-36.55,36.55V161a9,9,0,0,0,9,9h55.1a9,9,0,0,0,9-9V149.48A36.59,36.59,0,0,0,160,112.93Z"/></svg>