<svg id="Layer_1" data-name="Layer 1" xmlns="http://www.w3.org/2000/svg" viewBox="0 0 320 235"><defs><style>.cls-1{fill:none;stroke:#fff;stroke-linejoin:round;stroke-width:7px;}</style></defs><title>button</title><path class="cls-1" d="M121.19,119.76A11.15,11.15,0,0,1,111,130.87a49.88,49.88,0,0,0,6.53,15.89,11.14,11.14,0,0,1,15.71,15.71A49.88,49.88,0,0,0,149.12,169a11.15,11.15,0,0,1,22.21-.11,49.88,49.88,0,0,0,15.72-6.62,11.15,11.15,0,0,1,15.56-15.78A49.89,49.89,0,0,0,209,130.81a11.14,11.14,0,0,1-.1-22.09,49.88,49.88,0,0,0-6.48-15.54,11.14,11.14,0,0,1-15.6-15.6,49.88,49.88,0,0,0-15.54-6.48,11.14,11.14,0,0,1-22.09-.1,49.89,49.89,0,0,0-15.68,6.38,11.15,11.15,0,0,1-15.78,15.56,49.88,49.88,0,0,0-6.62,15.72A11.15,11.15,0,0,1,121.19,119.76Z"/><circle class="cls-1" cx="160.23" cy="119.76" r="25.1" transform="translate(-37.75 148.37) rotate(-45)"/><circle class="cls-1" cx="160.23" cy="119.76" r="22.31" transform="translate(-37.75 148.37) rotate(-45)"/></svg>