<svg id="Layer_1" data-name="Layer 1" xmlns="http://www.w3.org/2000/svg" viewBox="0 0 412 366"><defs><style>.cls-1{fill:silver;}</style></defs><title>like</title><path class="cls-1" d="M291.43,40c45,0,81.57,34.85,81.57,77.68,0,23.08-10.69,44.82-29.33,59.65l-1.52,1.21-1.4,1.35L205.92,310.41,87.25,195.54,63,171.74a75.39,75.39,0,0,1-23-54.06C40,74.85,76.59,40,121.57,40A83.17,83.17,0,0,1,179,62.55l27.48,26,27.48-26A83.17,83.17,0,0,1,291.43,40m0-40A123.26,123.26,0,0,0,206.5,33.49,123.26,123.26,0,0,0,121.57,0C54.43,0,0,52.69,0,117.68a115.41,115.41,0,0,0,35,82.6l-.18.17L205.92,366.08,368.57,208.63C395.7,187,413,154.32,413,117.68,413,52.69,358.57,0,291.43,0Z"/></svg>