<svg id="Layer_1" data-name="Layer 1" xmlns="http://www.w3.org/2000/svg" viewBox="0 0 306.3 136.5">
    <defs>
        <style>
            .cls-1 {
                fill: #231f20;
            }
        </style>
    </defs>
    <title>Logo</title><path class="cls-1" d="M148.5,45.5A45.5,45.5,0,1,0,194,91,45.5,45.5,0,0,0,148.5,45.5Zm0,80.5a35,35,0,1,1,35-35A35,35,0,0,1,148.5,126Z"/><path class="cls-1" d="M251.5,45.5A45.5,45.5,0,1,0,297,91,45.5,45.5,0,0,0,251.5,45.5Zm0,80.5a35,35,0,1,1,35-35A35,35,0,0,1,251.5,126Z"/><path class="cls-1" d="M80.5,61.93A45.5,45.5,0,1,0,91,91V0H80.5ZM45.5,126a35,35,0,1,1,35-35A35,35,0,0,1,45.5,126Z"/><circle class="cls-1" cx="299.19" cy="129.39" r="7.11"/>
</svg>
